<svg width="32" height="24" xmlns="http://www.w3.org/2000/svg">
  <g fill="none">
    <path d="M4.129.5h23.742c2 0 3.629 1.64 3.629 3.674v15.652c0 2.034-1.63 3.674-3.629 3.674H4.129c-2 0-3.629-1.64-3.629-3.674V4.174C.5 2.14 2.13.5 4.129.5z" stroke="#E6E6E6" fill="#FFF"/>
    <g transform="translate(8 5)">
      <path d="M0 1.08v12.403c0 .596.486 1.08 1.085 1.08h7.449c5.629 0 8.07-3.137 8.07-7.296C16.604 3.124 14.163 0 8.534 0h-7.45C.487 0 0 .483 0 1.08z" fill="#FFF"/>
      <path d="M8.532 13.57H2.054a1.04 1.04 0 01-1.042-1.035V2.028A1.04 1.04 0 012.054.99h6.478c6.144 0 7.062 3.932 7.062 6.276 0 4.066-2.508 6.304-7.062 6.304zM2.054 1.338a.694.694 0 00-.695.69v10.508c0 .381.311.69.695.69h6.478c4.33 0 6.715-2.116 6.715-5.958 0-5.16-4.207-5.93-6.715-5.93H2.054z" fill="#000"/>
      <path d="M4.984 3.045v9.163h4.009c3.642 0 5.22-2.048 5.22-4.936 0-2.767-1.578-4.917-5.22-4.917H5.678a.693.693 0 00-.694.69z" fill="#C06"/>
      <path fill="#FFF" d="M12.626 6.035v1.784h1.072v.405h-1.555v-2.19zm-1.61 0l.823 2.189h-.502l-.166-.486h-.824l-.172.486h-.489l.833-2.19h.497zm.028 1.342l-.278-.803h-.006l-.286.803h.57zM9.359 6.035v.404H8.197v.47h1.066v.373H8.197v.537h1.187v.405h-1.67v-2.19zm-2.964 0c.135-.001.27.021.396.067a.862.862 0 01.527.54 1.561 1.561 0 01.014.916.976.976 0 01-.186.35.875.875 0 01-.312.231 1.059 1.059 0 01-.439.085h-.949v-2.19h.95zm-.034 1.784c.07 0 .138-.011.204-.034a.45.45 0 00.175-.112.565.565 0 00.124-.203.89.89 0 00.046-.307c0-.1-.01-.2-.032-.299a.592.592 0 00-.109-.228.474.474 0 00-.196-.146.78.78 0 00-.3-.05h-.345v1.379h.433z"/>
      <path d="M3.172 8.72c.425 0 .769.342.769.764v2.724c-.85 0-1.538-.685-1.538-1.53V9.484a.763.763 0 01.77-.764z" fill="#000"/>
      <ellipse fill="#000" cx="3.172" cy="7.129" rx="1.015" ry="1.01"/>
    </g>
  </g>
</svg>
